{
  "accessors": [
    {
      "bufferView": 2,
      "componentType": 5126,
      "count": 30854,
      "max": [
        4.002749919891357,
        1.9327800273895264,
        119.92868041992188
      ],
      "min": [
        -23.410579681396484,
        -1.9422399997711182,
        -59.942169189453125
      ],
      "type": "VEC3"
    },
    {
      "bufferView": 2,
      "byteOffset": 370248,
      "componentType": 5126,
      "count": 30854,
      "max": [
        1.0,
        1.0,
        1.0
      ],
      "min": [
        -1.0,
        -1.0,
        -1.0
      ],
      "type": "VEC3"
    },
    {
      "bufferView": 1,
      "componentType": 5126,
      "count": 30854,
      "max": [
        0.9983100295066833,
        0.9860399961471558
      ],
      "min": [
        0.00394000019878149,
        0.04112999886274338
      ],
      "type": "VEC2"
    },
    {
      "bufferView": 0,
      "componentType": 5125,
      "count": 179988,
      "type": "SCALAR"
    },
    {
      "bufferView": 2,
      "byteOffset": 740496,
      "componentType": 5126,
      "count": 3770,
      "max": [
        1.488219976425171,
        8.438199996948242,
        14.471639633178711
      ],
      "min": [
        -1.7784099578857422,
        -1.5023800134658813,
        -12.349650382995605
      ],
      "type": "VEC3"
    },
    {
      "bufferView": 2,
      "byteOffset": 785736,
      "componentType": 5126,
      "count": 3770,
      "max": [
        1.0,
        1.0,
        0.9999814629554749
      ],
      "min": [
        -1.0,
        -0.9999999403953552,
        -0.9999995827674866
      ],
      "type": "VEC3"
    },
    {
      "bufferView": 1,
      "byteOffset": 246832,
      "componentType": 5126,
      "count": 3770,
      "max": [
        0.7283300161361694,
        0.8123400211334229
      ],
      "min": [
        0.08325999975204468,
        0.38870999217033386
      ],
      "type": "VEC2"
    },
    {
      "bufferView": 0,
      "byteOffset": 719952,
      "componentType": 5125,
      "count": 22560,
      "type": "SCALAR"
    }
  ],
  "asset": {
    "extras": {
      "author": "TN_Nomad (https://sketchfab.com/TN_Nomad)",
      "license": "CC-BY-4.0 (http://creativecommons.org/licenses/by/4.0/)",
      "source": "https://sketchfab.com/3d-models/mosin-nagant-2fd8a7efd9254b8b81b06934b7782954",
      "title": "Mosin Nagant"
    },
    "generator": "Sketchfab-12.68.0",
    "version": "2.0"
  },
  "bufferViews": [
    {
      "buffer": 0,
      "byteLength": 810192,
      "name": "floatBufferViews",
      "target": 34963
    },
    {
      "buffer": 0,
      "byteLength": 276992,
      "byteOffset": 810192,
      "byteStride": 8,
      "name": "floatBufferViews",
      "target": 34962
    },
    {
      "buffer": 0,
      "byteLength": 830976,
      "byteOffset": 1087184,
      "byteStride": 12,
      "name": "floatBufferViews",
      "target": 34962
    }
  ],
  "buffers": [
    {
      "byteLength": 1918160,
      "uri": "scene.bin"
    }
  ],
  "extensionsRequired": [
    "KHR_materials_pbrSpecularGlossiness"
  ],
  "extensionsUsed": [
    "KHR_materials_pbrSpecularGlossiness"
  ],
  "images": [
    {
      "uri": "textures/Mosin_Body_diffuse.jpeg"
    }
  ],
  "materials": [
    {
      "doubleSided": true,
      "extensions": {
        "KHR_materials_pbrSpecularGlossiness": {
          "diffuseFactor": [
            1.0,
            1.0,
            1.0,
            1.0
          ],
          "diffuseTexture": {
            "index": 0
          },
          "glossinessFactor": 0.0,
          "specularFactor": [
            0.0,
            0.0,
            0.0
          ]
        }
      },
      "name": "Mosin_Body"
    },
    {
      "doubleSided": true,
      "extensions": {
        "KHR_materials_pbrSpecularGlossiness": {
          "diffuseFactor": [
            0.23500000000000001,
            0.23500000000000001,
            0.23500000000000001,
            1.0
          ],
          "glossinessFactor": 0.52,
          "specularFactor": [
            0.04,
            0.04,
            0.04
          ]
        }
      },
      "name": "Mosin_Bolt"
    }
  ],
  "meshes": [
    {
      "name": "Cylinder.002_0",
      "primitives": [
        {
          "attributes": {
            "NORMAL": 1,
            "POSITION": 0,
            "TEXCOORD_0": 2
          },
          "indices": 3,
          "material": 0,
          "mode": 4
        }
      ]
    },
    {
      "name": "Cylinder.002_1",
      "primitives": [
        {
          "attributes": {
            "NORMAL": 5,
            "POSITION": 4,
            "TEXCOORD_0": 6
          },
          "indices": 7,
          "material": 1,
          "mode": 4
        }
      ]
    }
  ],
  "nodes": [
    {
      "children": [
        1
      ],
      "matrix": [
        1.0,
        0.0,
        0.0,
        0.0,
        0.0,
        2.220446049250313e-16,
        -1.0,
        0.0,
        0.0,
        1.0,
        2.220446049250313e-16,
        0.0,
        0.0,
        0.0,
        0.0,
        1.0
      ],
      "name": "Sketchfab_model"
    },
    {
      "children": [
        2,
        4
      ],
      "name": "Root"
    },
    {
      "children": [
        3
      ],
      "matrix": [
        -0.29086000000000006,
        0.9551700000000001,
        -0.05519000000000001,
        0.0,
        -0.7711,
        -0.19988000000000003,
        0.6045200000000001,
        0.0,
        0.5663900000000001,
        0.21839000000000003,
        0.7946700000000001,
        0.0,
        4.076250000000001,
        1.00545,
        5.903860000000001,
        1.0
      ],
      "name": "Lamp"
    },
    {
      "name": "Lamp"
    },
    {
      "children": [
        5,
        6
      ],
      "matrix": [
        0.0,
        0.0,
        0.055420000000000004,
        0.0,
        0.0,
        -0.055420000000000004,
        -0.0,
        0.0,
        0.055420000000000004,
        0.0,
        -0.0,
        0.0,
        -1.6679,
        -0.0002600000000000001,
        0.53727,
        1.0
      ],
      "name": "Cylinder.002"
    },
    {
      "mesh": 0,
      "name": "Cylinder.002_0"
    },
    {
      "mesh": 1,
      "name": "Cylinder.002_1"
    }
  ],
  "samplers": [
    {
      "magFilter": 9729,
      "minFilter": 9987,
      "wrapS": 10497,
      "wrapT": 10497
    }
  ],
  "scene": 0,
  "scenes": [
    {
      "name": "Sketchfab_Scene",
      "nodes": [
        0
      ]
    }
  ],
  "textures": [
    {
      "sampler": 0,
      "source": 0
    }
  ]
}
