{
  "accessors": [
    {
      "bufferView": 2,
      "componentType": 5126,
      "count": 4640,
      "max": [
        0.10097155719995499,
        0.12733900547027588,
        0.6224357485771179
      ],
      "min": [
        -0.12154034525156021,
        -0.08528398722410202,
        -0.3433777093887329
      ],
      "type": "VEC3"
    },
    {
      "bufferView": 2,
      "byteOffset": 55680,
      "componentType": 5126,
      "count": 4640,
      "max": [
        0.9999370574951172,
        0.999748170375824,
        1.0
      ],
      "min": [
        -1.0,
        -0.9998475313186646,
        -1.0
      ],
      "type": "VEC3"
    },
    {
      "bufferView": 3,
      "componentType": 5126,
      "count": 4640,
      "max": [
        0.9999692440032959,
        0.999968409538269,
        0.9999936819076538,
        1.0
      ],
      "min": [
        -0.9996591806411743,
        -0.9999678730964661,
        -1.0,
        -1.0
      ],
      "type": "VEC4"
    },
    {
      "bufferView": 1,
      "componentType": 5126,
      "count": 4640,
      "max": [
        1.78515625,
        0.9979724884033203
      ],
      "min": [
        0.000995635986328125,
        0.00390625
      ],
      "type": "VEC2"
    },
    {
      "bufferView": 1,
      "byteOffset": 37120,
      "componentType": 5126,
      "count": 4640,
      "max": [
        0.99951171875,
        0.8074951171875
      ],
      "min": [
        3.0517578125e-05,
        0.0
      ],
      "type": "VEC2"
    },
    {
      "bufferView": 1,
      "byteOffset": 74240,
      "componentType": 5126,
      "count": 4640,
      "max": [
        1.78515625,
        0.9979724884033203
      ],
      "min": [
        0.000995635986328125,
        0.00390625
      ],
      "type": "VEC2"
    },
    {
      "bufferView": 1,
      "byteOffset": 111360,
      "componentType": 5126,
      "count": 4640,
      "max": [
        1.78515625,
        0.9979724884033203
      ],
      "min": [
        0.000995635986328125,
        0.00390625
      ],
      "type": "VEC2"
    },
    {
      "bufferView": 1,
      "byteOffset": 148480,
      "componentType": 5126,
      "count": 4640,
      "max": [
        1.78515625,
        0.9979724884033203
      ],
      "min": [
        0.000995635986328125,
        0.00390625
      ],
      "type": "VEC2"
    },
    {
      "bufferView": 1,
      "byteOffset": 185600,
      "componentType": 5126,
      "count": 4640,
      "max": [
        1.78515625,
        0.9979724884033203
      ],
      "min": [
        0.000995635986328125,
        0.00390625
      ],
      "type": "VEC2"
    },
    {
      "bufferView": 0,
      "componentType": 5125,
      "count": 12597,
      "type": "SCALAR"
    }
  ],
  "asset": {
    "extras": {
      "author": "MaX3Dd (https://sketchfab.com/MaX3Dd)",
      "license": "CC-BY-4.0 (http://creativecommons.org/licenses/by/4.0/)",
      "source": "https://sketchfab.com/3d-models/ppsh-41-low-poly-d9ee1742732c4aec9c98aeddfb93071c",
      "title": "PPSH 41 Low-poly"
    },
    "generator": "Sketchfab-14.74.0",
    "version": "2.0"
  },
  "bufferViews": [
    {
      "buffer": 0,
      "byteLength": 50388,
      "name": "floatBufferViews",
      "target": 34963
    },
    {
      "buffer": 0,
      "byteLength": 222720,
      "byteOffset": 50388,
      "byteStride": 8,
      "name": "floatBufferViews",
      "target": 34962
    },
    {
      "buffer": 0,
      "byteLength": 111360,
      "byteOffset": 273108,
      "byteStride": 12,
      "name": "floatBufferViews",
      "target": 34962
    },
    {
      "buffer": 0,
      "byteLength": 74240,
      "byteOffset": 384468,
      "byteStride": 16,
      "name": "floatBufferViews",
      "target": 34962
    }
  ],
  "buffers": [
    {
      "byteLength": 458708,
      "uri": "scene.bin"
    }
  ],
  "images": [
    {
      "uri": "textures/PPSH41_baseColor.png"
    },
    {
      "uri": "textures/PPSH41_metallicRoughness.png"
    },
    {
      "uri": "textures/PPSH41_normal.png"
    }
  ],
  "materials": [
    {
      "doubleSided": true,
      "name": "PPSH41",
      "normalTexture": {
        "index": 2
      },
      "occlusionTexture": {
        "index": 1
      },
      "pbrMetallicRoughness": {
        "baseColorTexture": {
          "index": 0
        },
        "metallicRoughnessTexture": {
          "index": 1
        }
      }
    }
  ],
  "meshes": [
    {
      "name": "ppsh_PPSH41_0",
      "primitives": [
        {
          "attributes": {
            "NORMAL": 1,
            "POSITION": 0,
            "TANGENT": 2,
            "TEXCOORD_0": 3,
            "TEXCOORD_1": 4,
            "TEXCOORD_2": 5,
            "TEXCOORD_3": 6,
            "TEXCOORD_4": 7,
            "TEXCOORD_5": 8
          },
          "indices": 9,
          "material": 0,
          "mode": 4
        }
      ]
    }
  ],
  "nodes": [
    {
      "children": [
        1
      ],
      "matrix": [
        1.0,
        0.0,
        0.0,
        0.0,
        0.0,
        2.220446049250313e-16,
        -1.0,
        0.0,
        0.0,
        1.0,
        2.220446049250313e-16,
        0.0,
        0.0,
        0.0,
        0.0,
        1.0
      ],
      "name": "Sketchfab_model"
    },
    {
      "children": [
        2
      ],
      "matrix": [
        0.009999999776482582,
        0.0,
        0.0,
        0.0,
        0.0,
        0.0,
        0.009999999776482582,
        0.0,
        0.0,
        -0.009999999776482582,
        0.0,
        0.0,
        0.0,
        0.0,
        0.0,
        1.0
      ],
      "name": "PPSH 41.fbx"
    },
    {
      "children": [
        3
      ],
      "name": "RootNode"
    },
    {
      "children": [
        4
      ],
      "matrix": [
        -33.978494940371,
        -66.45479268634597,
        -2.133281750344105e-05,
        0.0,
        66.45479268633962,
        -33.978494940377246,
        2.9562490599259276e-05,
        0.0,
        -3.603310805331979e-05,
        -5.535799588514247e-06,
        74.63764190672939,
        0.0,
        -1.0529890060424805,
        7.439631938934326,
        -14.200934410095215,
        1.0
      ],
      "name": "ppsh"
    },
    {
      "mesh": 0,
      "name": "ppsh_PPSH41_0"
    }
  ],
  "samplers": [
    {
      "magFilter": 9729,
      "minFilter": 9987,
      "wrapS": 10497,
      "wrapT": 10497
    }
  ],
  "scene": 0,
  "scenes": [
    {
      "name": "Sketchfab_Scene",
      "nodes": [
        0
      ]
    }
  ],
  "textures": [
    {
      "sampler": 0,
      "source": 0
    },
    {
      "sampler": 0,
      "source": 1
    },
    {
      "sampler": 0,
      "source": 2
    }
  ]
}
