{
  "accessors": [
    {
      "bufferView": 2,
      "componentType": 5126,
      "count": 6862,
      "max": [
        0.417279988527298,
        1.577254056930542,
        0.3626900017261505
      ],
      "min": [
        -0.417279988527298,
        -3.0082099437713623,
        -0.7274799942970276
      ],
      "type": "VEC3"
    },
    {
      "bufferView": 2,
      "byteOffset": 82344,
      "componentType": 5126,
      "count": 6862,
      "max": [
        1.0,
        1.0,
        1.0
      ],
      "min": [
        -1.0,
        -1.0,
        -1.0
      ],
      "type": "VEC3"
    },
    {
      "bufferView": 3,
      "componentType": 5126,
      "count": 6862,
      "max": [
        1.0,
        1.0,
        1.0,
        1.0
      ],
      "min": [
        -1.0,
        -1.0,
        -1.0,
        -1.0
      ],
      "type": "VEC4"
    },
    {
      "bufferView": 1,
      "componentType": 5126,
      "count": 6862,
      "max": [
        0.992035984992981,
        0.9919009804725647
      ],
      "min": [
        0.007964000105857849,
        0.007964000105857849
      ],
      "type": "VEC2"
    },
    {
      "bufferView": 0,
      "componentType": 5125,
      "count": 22344,
      "type": "SCALAR"
    },
    {
      "bufferView": 2,
      "byteOffset": 164688,
      "componentType": 5126,
      "count": 198,
      "max": [
        0.053968001157045364,
        -0.5733910202980042,
        0.2611129879951477
      ],
      "min": [
        -0.1949169933795929,
        -1.3726619482040405,
        0.14981000125408173
      ],
      "type": "VEC3"
    },
    {
      "bufferView": 2,
      "byteOffset": 167064,
      "componentType": 5126,
      "count": 198,
      "max": [
        1.0,
        1.0,
        1.0
      ],
      "min": [
        -1.0,
        -1.0,
        -1.0
      ],
      "type": "VEC3"
    },
    {
      "bufferView": 3,
      "byteOffset": 109792,
      "componentType": 5126,
      "count": 198,
      "max": [
        1.0,
        1.0,
        1.0,
        1.0
      ],
      "min": [
        -1.0,
        -1.0,
        -1.0,
        1.0
      ],
      "type": "VEC4"
    },
    {
      "bufferView": 1,
      "byteOffset": 54896,
      "componentType": 5126,
      "count": 198,
      "max": [
        0.962906002998352,
        0.9785209894180298
      ],
      "min": [
        0.07274799793958664,
        0.16554999351501465
      ],
      "type": "VEC2"
    },
    {
      "bufferView": 0,
      "byteOffset": 89376,
      "componentType": 5125,
      "count": 546,
      "type": "SCALAR"
    },
    {
      "bufferView": 2,
      "byteOffset": 169440,
      "componentType": 5126,
      "count": 2872,
      "max": [
        0.1313299983739853,
        0.030283000320196152,
        0.3626900017261505
      ],
      "min": [
        -0.10502000153064728,
        -3.0082099437713623,
        0.05118200182914734
      ],
      "type": "VEC3"
    },
    {
      "bufferView": 2,
      "byteOffset": 203904,
      "componentType": 5126,
      "count": 2872,
      "max": [
        1.0,
        1.0,
        1.0
      ],
      "min": [
        -1.0,
        -1.0,
        -1.0
      ],
      "type": "VEC3"
    },
    {
      "bufferView": 3,
      "byteOffset": 112960,
      "componentType": 5126,
      "count": 2872,
      "max": [
        1.0,
        1.0,
        1.0,
        1.0
      ],
      "min": [
        -1.0,
        -1.0,
        -1.0,
        -1.0
      ],
      "type": "VEC4"
    },
    {
      "bufferView": 1,
      "byteOffset": 56480,
      "componentType": 5126,
      "count": 2872,
      "max": [
        0.992035984992981,
        0.9919009804725647
      ],
      "min": [
        0.008665000088512897,
        0.007964000105857849
      ],
      "type": "VEC2"
    },
    {
      "bufferView": 0,
      "byteOffset": 91560,
      "componentType": 5125,
      "count": 9348,
      "type": "SCALAR"
    },
    {
      "bufferView": 2,
      "byteOffset": 238368,
      "componentType": 5126,
      "count": 1353,
      "max": [
        0.417279988527298,
        0.13474400341510773,
        0.4824860095977783
      ],
      "min": [
        -0.417279988527298,
        -0.1282220035791397,
        -0.4210929870605469
      ],
      "type": "VEC3"
    },
    {
      "bufferView": 2,
      "byteOffset": 254604,
      "componentType": 5126,
      "count": 1353,
      "max": [
        1.0,
        1.0,
        1.0
      ],
      "min": [
        -1.0,
        -1.0,
        -1.0
      ],
      "type": "VEC3"
    },
    {
      "bufferView": 3,
      "byteOffset": 158912,
      "componentType": 5126,
      "count": 1353,
      "max": [
        1.0,
        1.0,
        1.0,
        1.0
      ],
      "min": [
        -1.0,
        -1.0,
        -1.0,
        1.0
      ],
      "type": "VEC4"
    },
    {
      "bufferView": 1,
      "byteOffset": 79456,
      "componentType": 5126,
      "count": 1353,
      "max": [
        0.9871810078620911,
        0.9916509985923767
      ],
      "min": [
        0.007964000105857849,
        0.007964000105857849
      ],
      "type": "VEC2"
    },
    {
      "bufferView": 0,
      "byteOffset": 128952,
      "componentType": 5125,
      "count": 3642,
      "type": "SCALAR"
    },
    {
      "bufferView": 2,
      "byteOffset": 270840,
      "componentType": 5126,
      "count": 938,
      "max": [
        0.16617000102996826,
        -0.09223300218582153,
        0.1700270026922226
      ],
      "min": [
        -0.1715569943189621,
        -1.516294002532959,
        -0.31748300790786743
      ],
      "type": "VEC3"
    },
    {
      "bufferView": 2,
      "byteOffset": 282096,
      "componentType": 5126,
      "count": 938,
      "max": [
        1.0,
        1.0,
        1.0
      ],
      "min": [
        -1.0,
        -1.0,
        -1.0
      ],
      "type": "VEC3"
    },
    {
      "bufferView": 3,
      "byteOffset": 180560,
      "componentType": 5126,
      "count": 938,
      "max": [
        1.0,
        1.0,
        1.0,
        1.0
      ],
      "min": [
        -1.0,
        -1.0,
        -1.0,
        -1.0
      ],
      "type": "VEC4"
    },
    {
      "bufferView": 1,
      "byteOffset": 90280,
      "componentType": 5126,
      "count": 938,
      "max": [
        0.9762880206108093,
        0.9793509840965271
      ],
      "min": [
        0.008665000088512897,
        0.007964000105857849
      ],
      "type": "VEC2"
    },
    {
      "bufferView": 0,
      "byteOffset": 143520,
      "componentType": 5125,
      "count": 2460,
      "type": "SCALAR"
    },
    {
      "bufferView": 2,
      "byteOffset": 293352,
      "componentType": 5126,
      "count": 142,
      "max": [
        0.013264000415802002,
        -0.19922299683094025,
        -0.0987429991364479
      ],
      "min": [
        -0.013264000415802002,
        -0.32476699352264404,
        -0.2560169994831085
      ],
      "type": "VEC3"
    },
    {
      "bufferView": 2,
      "byteOffset": 295056,
      "componentType": 5126,
      "count": 142,
      "max": [
        1.0,
        1.0,
        0.9519144296646118
      ],
      "min": [
        -1.0,
        -1.0,
        -1.0
      ],
      "type": "VEC3"
    },
    {
      "bufferView": 3,
      "byteOffset": 195568,
      "componentType": 5126,
      "count": 142,
      "max": [
        0.9998230934143066,
        0.9923578500747681,
        0.9961132407188416,
        1.0
      ],
      "min": [
        -0.9997770190238953,
        -0.999967634677887,
        -0.9993734359741211,
        -1.0
      ],
      "type": "VEC4"
    },
    {
      "bufferView": 1,
      "byteOffset": 97784,
      "componentType": 5126,
      "count": 142,
      "max": [
        0.8353430032730103,
        0.9350950121879578
      ],
      "min": [
        0.8230730295181274,
        0.9002000093460083
      ],
      "type": "VEC2"
    },
    {
      "bufferView": 0,
      "byteOffset": 153360,
      "componentType": 5125,
      "count": 378,
      "type": "SCALAR"
    },
    {
      "bufferView": 2,
      "byteOffset": 296760,
      "componentType": 5126,
      "count": 1367,
      "max": [
        0.16015799343585968,
        1.577254056930542,
        0.16933299601078033
      ],
      "min": [
        -0.16015799343585968,
        -0.8711619973182678,
        -0.7156230211257935
      ],
      "type": "VEC3"
    },
    {
      "bufferView": 2,
      "byteOffset": 313164,
      "componentType": 5126,
      "count": 1367,
      "max": [
        1.0,
        0.9996234774589539,
        1.0
      ],
      "min": [
        -1.0,
        -0.9996234774589539,
        -0.9996772408485413
      ],
      "type": "VEC3"
    },
    {
      "bufferView": 3,
      "byteOffset": 197840,
      "componentType": 5126,
      "count": 1367,
      "max": [
        1.0,
        0.9997747540473938,
        0.9995137453079224,
        1.0
      ],
      "min": [
        -1.0,
        -0.9999032020568848,
        -0.9977641701698303,
        1.0
      ],
      "type": "VEC4"
    },
    {
      "bufferView": 1,
      "byteOffset": 98920,
      "componentType": 5126,
      "count": 1367,
      "max": [
        0.9824129939079285,
        0.9863060116767883
      ],
      "min": [
        0.007964000105857849,
        0.007964000105857849
      ],
      "type": "VEC2"
    },
    {
      "bufferView": 0,
      "byteOffset": 154872,
      "componentType": 5125,
      "count": 5970,
      "type": "SCALAR"
    }
  ],
  "asset": {
    "extras": {
      "author": "Foxx Assets (https://sketchfab.com/FoxxAssets)",
      "license": "CC-BY-4.0 (http://creativecommons.org/licenses/by/4.0/)",
      "source": "https://sketchfab.com/3d-models/ppsh-41-d3f7af13bec64e899b6a24ae5bf73b90",
      "title": "PPSH 41"
    },
    "generator": "Sketchfab-12.66.0",
    "version": "2.0"
  },
  "bufferViews": [
    {
      "buffer": 0,
      "byteLength": 178752,
      "name": "floatBufferViews",
      "target": 34963
    },
    {
      "buffer": 0,
      "byteLength": 109856,
      "byteOffset": 178752,
      "byteStride": 8,
      "name": "floatBufferViews",
      "target": 34962
    },
    {
      "buffer": 0,
      "byteLength": 329568,
      "byteOffset": 288608,
      "byteStride": 12,
      "name": "floatBufferViews",
      "target": 34962
    },
    {
      "buffer": 0,
      "byteLength": 219712,
      "byteOffset": 618176,
      "byteStride": 16,
      "name": "floatBufferViews",
      "target": 34962
    }
  ],
  "buffers": [
    {
      "byteLength": 837888,
      "uri": "scene.bin"
    }
  ],
  "images": [
    {
      "uri": "textures/DefaultMaterial_baseColor.jpeg"
    },
    {
      "uri": "textures/DefaultMaterial_metallicRoughness.png"
    },
    {
      "uri": "textures/DefaultMaterial_normal.png"
    }
  ],
  "materials": [
    {
      "doubleSided": true,
      "name": "DefaultMaterial",
      "normalTexture": {
        "index": 2
      },
      "occlusionTexture": {
        "index": 1
      },
      "pbrMetallicRoughness": {
        "baseColorTexture": {
          "index": 0
        },
        "metallicRoughnessTexture": {
          "index": 1
        }
      }
    }
  ],
  "meshes": [
    {
      "name": "defaultMaterial",
      "primitives": [
        {
          "attributes": {
            "NORMAL": 1,
            "POSITION": 0,
            "TANGENT": 2,
            "TEXCOORD_0": 3
          },
          "indices": 4,
          "material": 0,
          "mode": 4
        }
      ]
    },
    {
      "name": "defaultMaterial",
      "primitives": [
        {
          "attributes": {
            "NORMAL": 6,
            "POSITION": 5,
            "TANGENT": 7,
            "TEXCOORD_0": 8
          },
          "indices": 9,
          "material": 0,
          "mode": 4
        }
      ]
    },
    {
      "name": "defaultMaterial",
      "primitives": [
        {
          "attributes": {
            "NORMAL": 11,
            "POSITION": 10,
            "TANGENT": 12,
            "TEXCOORD_0": 13
          },
          "indices": 14,
          "material": 0,
          "mode": 4
        }
      ]
    },
    {
      "name": "defaultMaterial",
      "primitives": [
        {
          "attributes": {
            "NORMAL": 16,
            "POSITION": 15,
            "TANGENT": 17,
            "TEXCOORD_0": 18
          },
          "indices": 19,
          "material": 0,
          "mode": 4
        }
      ]
    },
    {
      "name": "defaultMaterial",
      "primitives": [
        {
          "attributes": {
            "NORMAL": 21,
            "POSITION": 20,
            "TANGENT": 22,
            "TEXCOORD_0": 23
          },
          "indices": 24,
          "material": 0,
          "mode": 4
        }
      ]
    },
    {
      "name": "defaultMaterial",
      "primitives": [
        {
          "attributes": {
            "NORMAL": 26,
            "POSITION": 25,
            "TANGENT": 27,
            "TEXCOORD_0": 28
          },
          "indices": 29,
          "material": 0,
          "mode": 4
        }
      ]
    },
    {
      "name": "defaultMaterial",
      "primitives": [
        {
          "attributes": {
            "NORMAL": 31,
            "POSITION": 30,
            "TANGENT": 32,
            "TEXCOORD_0": 33
          },
          "indices": 34,
          "material": 0,
          "mode": 4
        }
      ]
    }
  ],
  "nodes": [
    {
      "children": [
        1
      ],
      "matrix": [
        1.0,
        0.0,
        0.0,
        0.0,
        0.0,
        2.220446049250313e-16,
        -1.0,
        0.0,
        0.0,
        1.0,
        2.220446049250313e-16,
        0.0,
        0.0,
        0.0,
        0.0,
        1.0
      ],
      "name": "Sketchfab_model"
    },
    {
      "children": [
        2,
        4,
        6,
        8,
        10,
        12,
        14
      ],
      "matrix": [
        1.0,
        0.0,
        0.0,
        0.0,
        0.0,
        -4.371139006309477e-08,
        0.999999999999999,
        0.0,
        0.0,
        -0.999999999999999,
        -4.371139006309477e-08,
        0.0,
        0.0,
        0.0,
        0.0,
        1.0
      ],
      "name": "Collada visual scene group"
    },
    {
      "children": [
        3
      ],
      "matrix": [
        1.0,
        0.0,
        0.0,
        0.0,
        0.0,
        0.0,
        -1.0,
        0.0,
        0.0,
        1.0,
        0.0,
        0.0,
        0.0,
        0.0,
        0.0,
        1.0
      ],
      "name": "PPSH"
    },
    {
      "mesh": 0,
      "name": "defaultMaterial"
    },
    {
      "children": [
        5
      ],
      "matrix": [
        1.0,
        0.0,
        0.0,
        0.0,
        0.0,
        0.0,
        -1.0,
        0.0,
        0.0,
        1.0,
        0.0,
        0.0,
        0.0,
        0.0,
        0.0,
        1.0
      ],
      "name": "Bolt"
    },
    {
      "mesh": 1,
      "name": "defaultMaterial"
    },
    {
      "children": [
        7
      ],
      "matrix": [
        1.0,
        0.0,
        0.0,
        0.0,
        0.0,
        0.0,
        -1.0,
        0.0,
        0.0,
        1.0,
        0.0,
        0.0,
        0.0,
        0.0,
        0.0,
        1.0
      ],
      "name": "barrel"
    },
    {
      "mesh": 2,
      "name": "defaultMaterial"
    },
    {
      "children": [
        9
      ],
      "matrix": [
        1.0,
        0.0,
        0.0,
        0.0,
        0.0,
        -0.085985,
        -0.996296,
        0.0,
        0.0,
        0.996296,
        -0.085985,
        0.0,
        0.0,
        -0.297924,
        1.221544,
        1.0
      ],
      "name": "Drum"
    },
    {
      "mesh": 3,
      "name": "defaultMaterial"
    },
    {
      "children": [
        11
      ],
      "matrix": [
        0.802802,
        0.0,
        0.0,
        0.0,
        0.0,
        0.0,
        -1.0,
        0.0,
        0.0,
        1.0,
        0.0,
        0.0,
        0.0,
        0.0,
        0.0,
        1.0
      ],
      "name": "Main"
    },
    {
      "mesh": 4,
      "name": "defaultMaterial"
    },
    {
      "children": [
        13
      ],
      "matrix": [
        1.0,
        0.0,
        0.0,
        0.0,
        0.0,
        0.0,
        -1.0,
        0.0,
        0.0,
        1.0,
        0.0,
        0.0,
        0.0,
        0.0,
        0.0,
        1.0
      ],
      "name": "trigger"
    },
    {
      "mesh": 5,
      "name": "defaultMaterial"
    },
    {
      "children": [
        15
      ],
      "matrix": [
        0.802802,
        0.0,
        0.0,
        0.0,
        0.0,
        0.0,
        -1.0,
        0.0,
        0.0,
        1.0,
        0.0,
        0.0,
        0.0,
        0.0,
        0.0,
        1.0
      ],
      "name": "stock"
    },
    {
      "mesh": 6,
      "name": "defaultMaterial"
    }
  ],
  "samplers": [
    {
      "magFilter": 9729,
      "minFilter": 9987,
      "wrapS": 10497,
      "wrapT": 10497
    }
  ],
  "scene": 0,
  "scenes": [
    {
      "name": "Sketchfab_Scene",
      "nodes": [
        0
      ]
    }
  ],
  "textures": [
    {
      "sampler": 0,
      "source": 0
    },
    {
      "sampler": 0,
      "source": 1
    },
    {
      "sampler": 0,
      "source": 2
    }
  ]
}
