{
  "accessors": [
    {
      "bufferView": 2,
      "componentType": 5126,
      "count": 19295,
      "max": [
        2.6812057495117188,
        1.0299391746520996,
        4.059426307678223
      ],
      "min": [
        -1.3209187984466553,
        -1.0299391746520996,
        -0.15551041066646576
      ],
      "type": "VEC3"
    },
    {
      "bufferView": 2,
      "byteOffset": 231540,
      "componentType": 5126,
      "count": 19295,
      "max": [
        1.0,
        1.0,
        1.0
      ],
      "min": [
        -1.0,
        -1.0,
        -1.0
      ],
      "type": "VEC3"
    },
    {
      "bufferView": 1,
      "componentType": 5126,
      "count": 19295,
      "max": [
        0.9898529648780823,
        0.9932849407196045
      ],
      "min": [
        0.002896141493692994,
        0.0017356052994728088
      ],
      "type": "VEC2"
    },
    {
      "bufferView": 1,
      "byteOffset": 154360,
      "componentType": 5126,
      "count": 19295,
      "max": [
        0.9898529648780823,
        0.9932849407196045
      ],
      "min": [
        0.002896141493692994,
        0.0017356052994728088
      ],
      "type": "VEC2"
    },
    {
      "bufferView": 1,
      "byteOffset": 308720,
      "componentType": 5126,
      "count": 19295,
      "max": [
        0.9898529648780823,
        0.9932849407196045
      ],
      "min": [
        0.002896141493692994,
        0.0017356052994728088
      ],
      "type": "VEC2"
    },
    {
      "bufferView": 0,
      "componentType": 5125,
      "count": 50259,
      "type": "SCALAR"
    },
    {
      "bufferView": 2,
      "byteOffset": 463080,
      "componentType": 5126,
      "count": 7776,
      "max": [
        1.0279324054718018,
        0.6769058108329773,
        0.5910088419914246
      ],
      "min": [
        -2.947187900543213,
        -0.6769058108329773,
        -0.0007531419396400452
      ],
      "type": "VEC3"
    },
    {
      "bufferView": 2,
      "byteOffset": 556392,
      "componentType": 5126,
      "count": 7776,
      "max": [
        1.0,
        1.0,
        1.0
      ],
      "min": [
        -1.0,
        -1.0,
        -1.0
      ],
      "type": "VEC3"
    },
    {
      "bufferView": 1,
      "byteOffset": 463080,
      "componentType": 5126,
      "count": 7776,
      "max": [
        0.999941885471344,
        0.9996458292007446
      ],
      "min": [
        0.0003541657351888716,
        0.0003541657351888716
      ],
      "type": "VEC2"
    },
    {
      "bufferView": 1,
      "byteOffset": 525288,
      "componentType": 5126,
      "count": 7776,
      "max": [
        0.999941885471344,
        0.9996458292007446
      ],
      "min": [
        0.0003541657351888716,
        0.0003541657351888716
      ],
      "type": "VEC2"
    },
    {
      "bufferView": 1,
      "byteOffset": 587496,
      "componentType": 5126,
      "count": 7776,
      "max": [
        0.999941885471344,
        0.9996458292007446
      ],
      "min": [
        0.0003541657351888716,
        0.0003541657351888716
      ],
      "type": "VEC2"
    },
    {
      "bufferView": 0,
      "byteOffset": 201036,
      "componentType": 5125,
      "count": 24651,
      "type": "SCALAR"
    },
    {
      "bufferView": 2,
      "byteOffset": 649704,
      "componentType": 5126,
      "count": 65532,
      "max": [
        1.8664909601211548,
        1.0120482444763184,
        0.5713152289390564
      ],
      "min": [
        -2.228043794631958,
        -1.0120482444763184,
        -0.29726043343544006
      ],
      "type": "VEC3"
    },
    {
      "bufferView": 2,
      "byteOffset": 1436088,
      "componentType": 5126,
      "count": 65532,
      "max": [
        1.0,
        1.0,
        1.0
      ],
      "min": [
        -1.0,
        -1.0,
        -1.0
      ],
      "type": "VEC3"
    },
    {
      "bufferView": 1,
      "byteOffset": 649704,
      "componentType": 5126,
      "count": 65532,
      "max": [
        0.9981769323348999,
        0.9914939403533936
      ],
      "min": [
        0.015888433903455734,
        0.02698540687561035
      ],
      "type": "VEC2"
    },
    {
      "bufferView": 1,
      "byteOffset": 1173960,
      "componentType": 5126,
      "count": 65532,
      "max": [
        0.9981769323348999,
        0.9914939403533936
      ],
      "min": [
        0.015888433903455734,
        0.02698540687561035
      ],
      "type": "VEC2"
    },
    {
      "bufferView": 1,
      "byteOffset": 1698216,
      "componentType": 5126,
      "count": 65532,
      "max": [
        0.9981769323348999,
        0.9914939403533936
      ],
      "min": [
        0.015888433903455734,
        0.02698540687561035
      ],
      "type": "VEC2"
    },
    {
      "bufferView": 0,
      "byteOffset": 299640,
      "componentType": 5125,
      "count": 137352,
      "type": "SCALAR"
    },
    {
      "bufferView": 2,
      "byteOffset": 2222472,
      "componentType": 5126,
      "count": 49059,
      "max": [
        1.9418818950653076,
        1.0120482444763184,
        0.5176462531089783
      ],
      "min": [
        -2.165149211883545,
        -1.0120482444763184,
        -0.29726043343544006
      ],
      "type": "VEC3"
    },
    {
      "bufferView": 2,
      "byteOffset": 2811180,
      "componentType": 5126,
      "count": 49059,
      "max": [
        1.0,
        1.0,
        1.0
      ],
      "min": [
        -1.0,
        -1.0,
        -1.0
      ],
      "type": "VEC3"
    },
    {
      "bufferView": 1,
      "byteOffset": 2222472,
      "componentType": 5126,
      "count": 49059,
      "max": [
        0.9981769323348999,
        0.9914939403533936
      ],
      "min": [
        0.015888433903455734,
        0.02698540687561035
      ],
      "type": "VEC2"
    },
    {
      "bufferView": 1,
      "byteOffset": 2614944,
      "componentType": 5126,
      "count": 49059,
      "max": [
        0.9981769323348999,
        0.9914939403533936
      ],
      "min": [
        0.015888433903455734,
        0.02698540687561035
      ],
      "type": "VEC2"
    },
    {
      "bufferView": 1,
      "byteOffset": 3007416,
      "componentType": 5126,
      "count": 49059,
      "max": [
        0.9981769323348999,
        0.9914939403533936
      ],
      "min": [
        0.015888433903455734,
        0.02698540687561035
      ],
      "type": "VEC2"
    },
    {
      "bufferView": 0,
      "byteOffset": 849048,
      "componentType": 5125,
      "count": 120930,
      "type": "SCALAR"
    }
  ],
  "asset": {
    "extras": {
      "author": "kolopolo (https://sketchfab.com/kolopolo)",
      "license": "CC-BY-4.0 (http://creativecommons.org/licenses/by/4.0/)",
      "source": "https://sketchfab.com/3d-models/tank-wwii-025a1dbef1e04b259555ab0e38312a6b",
      "title": "Tank WWII"
    },
    "generator": "Sketchfab-12.67.0",
    "version": "2.0"
  },
  "bufferViews": [
    {
      "buffer": 0,
      "byteLength": 1332768,
      "name": "floatBufferViews",
      "target": 34963
    },
    {
      "buffer": 0,
      "byteLength": 3399888,
      "byteOffset": 1332768,
      "byteStride": 8,
      "name": "floatBufferViews",
      "target": 34962
    },
    {
      "buffer": 0,
      "byteLength": 3399888,
      "byteOffset": 4732656,
      "byteStride": 12,
      "name": "floatBufferViews",
      "target": 34962
    }
  ],
  "buffers": [
    {
      "byteLength": 8132544,
      "uri": "scene.bin"
    }
  ],
  "images": [
    {
      "uri": "textures/tank_barrel_baseColor.jpeg"
    }
  ],
  "materials": [
    {
      "doubleSided": true,
      "name": "tank"
    },
    {
      "doubleSided": true,
      "name": "tank_barrel",
      "pbrMetallicRoughness": {
        "baseColorTexture": {
          "index": 0
        }
      }
    },
    {
      "doubleSided": true,
      "name": "tank_caterpillar"
    }
  ],
  "meshes": [
    {
      "name": "tank_tank_0",
      "primitives": [
        {
          "attributes": {
            "NORMAL": 1,
            "POSITION": 0,
            "TEXCOORD_0": 2,
            "TEXCOORD_1": 3,
            "TEXCOORD_2": 4
          },
          "indices": 5,
          "material": 0,
          "mode": 4
        }
      ]
    },
    {
      "name": "tank_barrel_tank_barrel_0",
      "primitives": [
        {
          "attributes": {
            "NORMAL": 7,
            "POSITION": 6,
            "TEXCOORD_0": 8,
            "TEXCOORD_1": 9,
            "TEXCOORD_2": 10
          },
          "indices": 11,
          "material": 1,
          "mode": 4
        }
      ]
    },
    {
      "name": "tank_caterpillar_tank_caterpillar_0",
      "primitives": [
        {
          "attributes": {
            "NORMAL": 13,
            "POSITION": 12,
            "TEXCOORD_0": 14,
            "TEXCOORD_1": 15,
            "TEXCOORD_2": 16
          },
          "indices": 17,
          "material": 2,
          "mode": 4
        }
      ]
    },
    {
      "name": "tank_caterpillar_tank_caterpillar_0",
      "primitives": [
        {
          "attributes": {
            "NORMAL": 19,
            "POSITION": 18,
            "TEXCOORD_0": 20,
            "TEXCOORD_1": 21,
            "TEXCOORD_2": 22
          },
          "indices": 23,
          "material": 2,
          "mode": 4
        }
      ]
    }
  ],
  "nodes": [
    {
      "children": [
        1
      ],
      "matrix": [
        1.0,
        0.0,
        0.0,
        0.0,
        0.0,
        2.220446049250313e-16,
        -1.0,
        0.0,
        0.0,
        1.0,
        2.220446049250313e-16,
        0.0,
        0.0,
        0.0,
        0.0,
        1.0
      ],
      "name": "Sketchfab_model"
    },
    {
      "children": [
        2
      ],
      "matrix": [
        1.0,
        0.0,
        0.0,
        0.0,
        0.0,
        0.0,
        1.0,
        0.0,
        0.0,
        -1.0,
        0.0,
        0.0,
        0.0,
        0.0,
        0.0,
        1.0
      ],
      "name": "tank.fbx"
    },
    {
      "children": [
        3,
        5,
        7
      ],
      "name": "RootNode"
    },
    {
      "children": [
        4
      ],
      "matrix": [
        100.0,
        0.0,
        0.0,
        0.0,
        0.0,
        -1.629206793918314e-05,
        -99.99999999999868,
        0.0,
        0.0,
        41.69153594970648,
        -6.792413361815233e-06,
        0.0,
        0.0,
        0.0,
        0.0,
        1.0
      ],
      "name": "tank"
    },
    {
      "mesh": 0,
      "name": "tank_tank_0"
    },
    {
      "children": [
        6
      ],
      "matrix": [
        100.0,
        0.0,
        0.0,
        0.0,
        0.0,
        -1.629206793918314e-05,
        -99.99999999999868,
        0.0,
        0.0,
        99.99999999999868,
        -1.629206793918314e-05,
        0.0,
        42.89895248413086,
        83.38307189941406,
        0.0,
        1.0
      ],
      "name": "tank_barrel"
    },
    {
      "mesh": 1,
      "name": "tank_barrel_tank_barrel_0"
    },
    {
      "children": [
        8,
        9
      ],
      "matrix": [
        100.0,
        0.0,
        0.0,
        0.0,
        0.0,
        -1.629206793918314e-05,
        -99.99999999999868,
        0.0,
        0.0,
        99.99999999999868,
        -1.629206793918314e-05,
        0.0,
        91.4693603515625,
        0.0,
        0.0,
        1.0
      ],
      "name": "tank_caterpillar"
    },
    {
      "mesh": 2,
      "name": "tank_caterpillar_tank_caterpillar_0"
    },
    {
      "mesh": 3,
      "name": "tank_caterpillar_tank_caterpillar_0"
    }
  ],
  "samplers": [
    {
      "magFilter": 9729,
      "minFilter": 9987,
      "wrapS": 10497,
      "wrapT": 10497
    }
  ],
  "scene": 0,
  "scenes": [
    {
      "name": "Sketchfab_Scene",
      "nodes": [
        0
      ]
    }
  ],
  "textures": [
    {
      "sampler": 0,
      "source": 0
    }
  ]
}
