{
  "accessors": [
    {
      "bufferView": 2,
      "componentType": 5126,
      "count": 3352,
      "max": [
        -1086.6455078125,
        -237.10780334472656,
        -173.1916046142578
      ],
      "min": [
        -1110.44091796875,
        -242.98590087890625,
        -176.71170043945313
      ],
      "type": "VEC3"
    },
    {
      "bufferView": 2,
      "byteOffset": 40224,
      "componentType": 5126,
      "count": 3352,
      "max": [
        1.0,
        1.0,
        0.9980579018592834
      ],
      "min": [
        -1.0,
        -1.0,
        -0.9980577826499939
      ],
      "type": "VEC3"
    },
    {
      "bufferView": 1,
      "componentType": 5126,
      "count": 3352,
      "max": [
        0.9392989873886108,
        0.9506509900093079
      ],
      "min": [
        0.0175819993019104,
        0.004999999888241291
      ],
      "type": "VEC2"
    },
    {
      "bufferView": 0,
      "componentType": 5125,
      "count": 13152,
      "type": "SCALAR"
    },
    {
      "bufferView": 2,
      "byteOffset": 80448,
      "componentType": 5126,
      "count": 2924,
      "max": [
        -1084.74072265625,
        -238.0050048828125,
        -175.6656951904297
      ],
      "min": [
        -1107.5413818359375,
        -242.13369750976563,
        -185.36279296875
      ],
      "type": "VEC3"
    },
    {
      "bufferView": 2,
      "byteOffset": 115536,
      "componentType": 5126,
      "count": 2924,
      "max": [
        1.0,
        1.0,
        1.0
      ],
      "min": [
        -1.0,
        -0.9921102523803711,
        -1.0
      ],
      "type": "VEC3"
    },
    {
      "bufferView": 1,
      "byteOffset": 26816,
      "componentType": 5126,
      "count": 2924,
      "max": [
        0.9359719753265381,
        0.9341599941253662
      ],
      "min": [
        0.015783999115228653,
        0.004999999888241291
      ],
      "type": "VEC2"
    },
    {
      "bufferView": 0,
      "byteOffset": 52608,
      "componentType": 5125,
      "count": 11916,
      "type": "SCALAR"
    },
    {
      "bufferView": 2,
      "byteOffset": 150624,
      "componentType": 5126,
      "count": 3180,
      "max": [
        -1088.4027099609375,
        -234.4925994873047,
        -170.82000732421875
      ],
      "min": [
        -1115.682373046875,
        -243.9152069091797,
        -185.55810546875
      ],
      "type": "VEC3"
    },
    {
      "bufferView": 2,
      "byteOffset": 188784,
      "componentType": 5126,
      "count": 3180,
      "max": [
        1.0,
        1.0,
        1.0
      ],
      "min": [
        -0.9995071291923523,
        -1.0,
        -1.0
      ],
      "type": "VEC3"
    },
    {
      "bufferView": 1,
      "byteOffset": 50208,
      "componentType": 5126,
      "count": 3180,
      "max": [
        0.9950000047683716,
        0.969353973865509
      ],
      "min": [
        0.004999999888241291,
        0.004999999888241291
      ],
      "type": "VEC2"
    },
    {
      "bufferView": 0,
      "byteOffset": 100272,
      "componentType": 5125,
      "count": 13368,
      "type": "SCALAR"
    },
    {
      "bufferView": 2,
      "byteOffset": 226944,
      "componentType": 5126,
      "count": 3562,
      "max": [
        -1085.7421875,
        -236.98309326171875,
        -174.68310546875
      ],
      "min": [
        -1099.2940673828125,
        -243.0950927734375,
        -180.4835968017578
      ],
      "type": "VEC3"
    },
    {
      "bufferView": 2,
      "byteOffset": 269688,
      "componentType": 5126,
      "count": 3562,
      "max": [
        1.0,
        1.0,
        1.0
      ],
      "min": [
        -1.0,
        -1.0,
        -1.0
      ],
      "type": "VEC3"
    },
    {
      "bufferView": 1,
      "byteOffset": 75648,
      "componentType": 5126,
      "count": 3562,
      "max": [
        0.9819329977035522,
        0.9796450138092041
      ],
      "min": [
        0.08947599679231644,
        0.04813700169324875
      ],
      "type": "VEC2"
    },
    {
      "bufferView": 0,
      "byteOffset": 153744,
      "componentType": 5125,
      "count": 17112,
      "type": "SCALAR"
    },
    {
      "bufferView": 2,
      "byteOffset": 312432,
      "componentType": 5126,
      "count": 6128,
      "max": [
        -1089.0731201171875,
        -231.65280151367188,
        -175.87319946289063
      ],
      "min": [
        -1093.7486572265625,
        -248.506103515625,
        -192.69610595703125
      ],
      "type": "VEC3"
    },
    {
      "bufferView": 2,
      "byteOffset": 385968,
      "componentType": 5126,
      "count": 6128,
      "max": [
        1.0,
        1.0,
        1.0
      ],
      "min": [
        -1.0,
        -1.0,
        -1.0
      ],
      "type": "VEC3"
    },
    {
      "bufferView": 1,
      "byteOffset": 104144,
      "componentType": 5126,
      "count": 6128,
      "max": [
        0.951246976852417,
        0.9396370053291321
      ],
      "min": [
        0.004999999888241291,
        0.004999999888241291
      ],
      "type": "VEC2"
    },
    {
      "bufferView": 0,
      "byteOffset": 222192,
      "componentType": 5125,
      "count": 21300,
      "type": "SCALAR"
    },
    {
      "bufferView": 2,
      "byteOffset": 459504,
      "componentType": 5126,
      "count": 8273,
      "max": [
        -1058.0823974609375,
        -237.93629455566406,
        -170.28280639648438
      ],
      "min": [
        -1115.0938720703125,
        -241.92379760742188,
        -177.1367950439453
      ],
      "type": "VEC3"
    },
    {
      "bufferView": 2,
      "byteOffset": 558780,
      "componentType": 5126,
      "count": 8273,
      "max": [
        1.0,
        1.0,
        1.0
      ],
      "min": [
        -1.0,
        -1.0,
        -1.0
      ],
      "type": "VEC3"
    },
    {
      "bufferView": 1,
      "byteOffset": 153168,
      "componentType": 5126,
      "count": 8273,
      "max": [
        0.9782639741897583,
        0.956400990486145
      ],
      "min": [
        0.004999999888241291,
        0.004999999888241291
      ],
      "type": "VEC2"
    },
    {
      "bufferView": 0,
      "byteOffset": 307392,
      "componentType": 5125,
      "count": 40032,
      "type": "SCALAR"
    },
    {
      "bufferView": 2,
      "byteOffset": 658056,
      "componentType": 5126,
      "count": 8860,
      "max": [
        -1099.1177978515625,
        -237.26649475097656,
        -174.77020263671875
      ],
      "min": [
        -1148.3818359375,
        -242.9542999267578,
        -192.64590454101563
      ],
      "type": "VEC3"
    },
    {
      "bufferView": 2,
      "byteOffset": 764376,
      "componentType": 5126,
      "count": 8860,
      "max": [
        1.0,
        1.0,
        1.0
      ],
      "min": [
        -0.9999944567680359,
        -1.0,
        -1.0
      ],
      "type": "VEC3"
    },
    {
      "bufferView": 1,
      "byteOffset": 219352,
      "componentType": 5126,
      "count": 8860,
      "max": [
        0.8268380165100098,
        0.9062349796295166
      ],
      "min": [
        0.02117599919438362,
        0.12542299926280975
      ],
      "type": "VEC2"
    },
    {
      "bufferView": 0,
      "byteOffset": 467520,
      "componentType": 5125,
      "count": 48384,
      "type": "SCALAR"
    },
    {
      "bufferView": 2,
      "byteOffset": 870696,
      "componentType": 5126,
      "count": 528,
      "max": [
        -1062.1661376953125,
        -239.306396484375,
        -172.95150756835938
      ],
      "min": [
        -1089.8228759765625,
        -240.84429931640625,
        -174.4810028076172
      ],
      "type": "VEC3"
    },
    {
      "bufferView": 2,
      "byteOffset": 877032,
      "componentType": 5126,
      "count": 528,
      "max": [
        0.7090660333633423,
        1.0,
        0.9945192337036133
      ],
      "min": [
        -0.4519200026988983,
        -1.0,
        -0.9945271015167236
      ],
      "type": "VEC3"
    },
    {
      "bufferView": 1,
      "byteOffset": 290232,
      "componentType": 5126,
      "count": 528,
      "max": [
        0.7517369985580444,
        0.861096978187561
      ],
      "min": [
        0.08228600025177002,
        0.02117599919438362
      ],
      "type": "VEC2"
    },
    {
      "bufferView": 0,
      "byteOffset": 661056,
      "componentType": 5125,
      "count": 2148,
      "type": "SCALAR"
    }
  ],
  "asset": {
    "extras": {
      "author": "Connor S. Nielsen (https://sketchfab.com/ConnorNielsen)",
      "license": "CC-BY-4.0 (http://creativecommons.org/licenses/by/4.0/)",
      "source": "https://sketchfab.com/3d-models/ppsh-40-1d920771ebb141b29209212df2e4f359",
      "title": "PPSH-40"
    },
    "generator": "Sketchfab-12.67.0",
    "version": "2.0"
  },
  "bufferViews": [
    {
      "buffer": 0,
      "byteLength": 669648,
      "name": "floatBufferViews",
      "target": 34963
    },
    {
      "buffer": 0,
      "byteLength": 294456,
      "byteOffset": 669648,
      "byteStride": 8,
      "name": "floatBufferViews",
      "target": 34962
    },
    {
      "buffer": 0,
      "byteLength": 883368,
      "byteOffset": 964104,
      "byteStride": 12,
      "name": "floatBufferViews",
      "target": 34962
    }
  ],
  "buffers": [
    {
      "byteLength": 1847472,
      "uri": "scene.bin"
    }
  ],
  "images": [
    {
      "uri": "textures/Scene_-_Root_baseColor.png"
    },
    {
      "uri": "textures/Scene_-_Root_metallicRoughness.png"
    }
  ],
  "materials": [
    {
      "doubleSided": true,
      "name": "Scene_-_Root",
      "pbrMetallicRoughness": {
        "baseColorTexture": {
          "index": 0
        },
        "metallicRoughnessTexture": {
          "index": 1
        },
        "roughnessFactor": 0.6
      }
    }
  ],
  "meshes": [
    {
      "name": "Object_0",
      "primitives": [
        {
          "attributes": {
            "NORMAL": 1,
            "POSITION": 0,
            "TEXCOORD_0": 2
          },
          "indices": 3,
          "material": 0,
          "mode": 4
        }
      ]
    },
    {
      "name": "Object_1",
      "primitives": [
        {
          "attributes": {
            "NORMAL": 5,
            "POSITION": 4,
            "TEXCOORD_0": 6
          },
          "indices": 7,
          "material": 0,
          "mode": 4
        }
      ]
    },
    {
      "name": "Object_2",
      "primitives": [
        {
          "attributes": {
            "NORMAL": 9,
            "POSITION": 8,
            "TEXCOORD_0": 10
          },
          "indices": 11,
          "material": 0,
          "mode": 4
        }
      ]
    },
    {
      "name": "Object_3",
      "primitives": [
        {
          "attributes": {
            "NORMAL": 13,
            "POSITION": 12,
            "TEXCOORD_0": 14
          },
          "indices": 15,
          "material": 0,
          "mode": 4
        }
      ]
    },
    {
      "name": "Object_4",
      "primitives": [
        {
          "attributes": {
            "NORMAL": 17,
            "POSITION": 16,
            "TEXCOORD_0": 18
          },
          "indices": 19,
          "material": 0,
          "mode": 4
        }
      ]
    },
    {
      "name": "Object_5",
      "primitives": [
        {
          "attributes": {
            "NORMAL": 21,
            "POSITION": 20,
            "TEXCOORD_0": 22
          },
          "indices": 23,
          "material": 0,
          "mode": 4
        }
      ]
    },
    {
      "name": "Object_6",
      "primitives": [
        {
          "attributes": {
            "NORMAL": 25,
            "POSITION": 24,
            "TEXCOORD_0": 26
          },
          "indices": 27,
          "material": 0,
          "mode": 4
        }
      ]
    },
    {
      "name": "Object_7",
      "primitives": [
        {
          "attributes": {
            "NORMAL": 29,
            "POSITION": 28,
            "TEXCOORD_0": 30
          },
          "indices": 31,
          "material": 0,
          "mode": 4
        }
      ]
    }
  ],
  "nodes": [
    {
      "children": [
        1
      ],
      "matrix": [
        1.0,
        0.0,
        0.0,
        0.0,
        0.0,
        2.220446049250313e-16,
        -1.0,
        0.0,
        0.0,
        1.0,
        2.220446049250313e-16,
        0.0,
        0.0,
        0.0,
        0.0,
        1.0
      ],
      "name": "Sketchfab_model"
    },
    {
      "children": [
        2,
        3,
        4,
        5,
        6,
        7,
        8,
        9
      ],
      "name": "ppshcleantexture.obj.cleaner.materialmerger.gles"
    },
    {
      "mesh": 0,
      "name": "Object_2"
    },
    {
      "mesh": 1,
      "name": "Object_3"
    },
    {
      "mesh": 2,
      "name": "Object_4"
    },
    {
      "mesh": 3,
      "name": "Object_5"
    },
    {
      "mesh": 4,
      "name": "Object_6"
    },
    {
      "mesh": 5,
      "name": "Object_7"
    },
    {
      "mesh": 6,
      "name": "Object_8"
    },
    {
      "mesh": 7,
      "name": "Object_9"
    }
  ],
  "samplers": [
    {
      "magFilter": 9729,
      "minFilter": 9987,
      "wrapS": 10497,
      "wrapT": 10497
    }
  ],
  "scene": 0,
  "scenes": [
    {
      "name": "Sketchfab_Scene",
      "nodes": [
        0
      ]
    }
  ],
  "textures": [
    {
      "sampler": 0,
      "source": 0
    },
    {
      "sampler": 0,
      "source": 1
    }
  ]
}
